<svg xmlns="http://www.w3.org/2000/svg" version="1.1" xmlns:xlink="http://www.w3.org/1999/xlink" xmlns:svgjs="http://svgjs.dev/svgjs" width="177.66" height="158.16"><svg id="SvgjsSvg1124" xmlns="http://www.w3.org/2000/svg" viewBox="0 0 177.66 158.16">
  <defs>
    <style>
      .cls-1 {
        fill: #0a0203;
      }

      .cls-2 {
        fill: #010101;
      }

      .cls-3 {
        fill: #68206a;
      }

      .cls-4 {
        fill: #fff;
      }

      .cls-5 {
        fill: #8b357f;
      }

      .cls-6 {
        fill: #4c0348;
      }
    </style>
  </defs>
  <path class="cls-1" d="M177.63,100.37v-.17c-.1-1.41-.33-2.01-.54-2.36-.04-.1-.08-.23-.12-.37-.17-.54-.34-1.1-.67-1.52-.05-.09-.1-.18-.16-.28-.27-.5-.58-1.05-1.01-1.49-.55-.71-1.16-1.41-1.99-1.69l-.14-.05c-.09-.07-.23-.21-.33-.3-.15-.14-.32-.3-.5-.45-.53-.74-1.24-1.14-2.12-1.16-.16,0-.33,0-.5.01h-.07c-.09-.02-.22-.07-.33-.11-.35-.13-.8-.28-1.32-.3-.16,0-.32,0-.48.03l-.32.05-.1.07s-.06-.02-.09-.02c-.22-.06-.49-.12-.82-.13-.23,0-.45.02-.67.07l-.17.04-.15.08c-.07.04-.25.04-.44.05-.31,0-.7.02-1.2.17-.15.05-.29.09-.43.13-.36.09-.83.22-1.33.5-.93.17-1.65.87-2.2,1.51-.33.33-.64.59-.92.83l-.46.4-.08.1c-.48.61-.87,1.33-1.19,1.9l-.05.11c-.16.36-.31.73-.43,1.06-.1.26-.18.48-.26.63l-.05.11-.11.38c-.12.41-.21.73-.27,1.21,0,0,0,0,0,0,0-.01,0-.02,0-.03.09-.76.16-1.35.21-1.8.02-.15.04-.29.05-.41.18-.47.28-.98.29-1.54,0-.17,0-.35,0-.55v-.33c.04-6.02-.03-7.39-.19-8.18l-.04-.18-.05-.18c-.09-.31-.2-.56-.34-.9-.02-.06-.19-.65-.38-3.1,0,0,0-.03-.01-.04,0-.02-.02-.06-.03-.1,0,0,0,0,0,0-.09-.27-.3-.87-.44-1.44,3.65-1.41,6.98-3.62,9.72-6.44.29.11.63.2,1.03.22.08,0,.17,0,.25,0l.36-.02.25-.13c.14,0,.27.03.41.05.22.03.43.07.65.08h.23s.22-.05.22-.05c.1-.03.26-.03.44-.04.43-.01,1.03-.03,1.68-.36.37-.19.74-.3,1.18-.42l.62-.18.23-.2c.41-.35.81-.6,1.24-.87l.08-.05c.6-.24,1.02-.75,1.33-1.13.08-.09.15-.19.22-.26l.19-.11.17-.24c.08-.11.16-.19.23-.28.38-.42.72-.84,1.01-1.75.07-.18.14-.31.21-.44.19-.37.4-.8.56-1.6.07-.33.13-.55.17-.74.09-.34.16-.63.2-1.06.07-.57.06-.93.01-2.08-.05-.49-.16-1.43-.4-2.22l-.04-.14-.1-.16c-.07-.14-.14-.37-.23-.62-.12-.35-.25-.73-.39-1.05-.36-.88-.81-1.38-1.22-1.83l-.12-.13-.15-.2-.28-.13c-.09-.06-.3-.29-.44-.44-.17-.18-.34-.37-.52-.53-.49-.68-1.23-1.49-2.29-1.63-.05-.02-.09-.05-.14-.07-.49-.25-1.04-.53-1.7-.65h-.07s-.07-.02-.07-.02c-.53-.04-1.01-.14-1.39-.27-.34-.14-.7-.21-1.1-.23-.3,0-.59.02-.89.05-.14.02-.28.04-.42.04h-.12s-.12.02-.12.02c-.12.02-.23.01-.35.01-.42,0-1.08-.01-1.76.38-.48.13-.85.4-1.15.61-.04.03-.08.06-.12.09l-.35-.06-.51.42c-.22.18-.45.29-.74.44-.22.11-.44.22-.65.34-.72.34-1.25.99-1.68,1.51l-.18.22-.3.46c-.31.47-.58.89-.8,1.25-.36.56-.65,1.27-.88,2.13-.25.77-.36,1.6-.41,2.05-.05.54-.08,1.28-.03,1.88-1.7.96-3.73,1.53-5.61,1.58,0,0,0,0,0,0-.15-.35-.32-.69-.51-1.03-.12-.22-.25-.43-.38-.65-.07-.1-.13-.2-.21-.3-.22-.3-.45-.6-.72-.86-.12-.43-.25-.93-.36-1.32-.17-.66-.35-1.33-.56-1.99-.62-1.98-1.49-3.81-3.25-4.56-1.5-2.74-3.29-4.68-5.39-5.86-.23-.34-.47-.65-.71-.94-.02-.03-.05-.06-.07-.09-.23-.27-.45-.53-.68-.76,0,0,0,0,0,0,.09-.17.18-.35.27-.52,1.21-2.2,3.01-4.1,5.34-5.68.35.23.81.54,1.47.61.22.04.44.1.66.16.31.09.65.18,1.02.24.36.13.74.2,1.14.21.45.01.88-.05,1.22-.12.53,0,1.01-.12,1.4-.22.13-.03.25-.07.38-.09.03,0,.05,0,.08,0,1.04.03,1.9-.32,2.58-1.02.25-.24.49-.36.82-.52.17-.08.34-.17.51-.26l.14-.08s.39-.35.52-.46c.38-.32.76-.66,1.15-1.11l.15-.18.09-.21c.22-.54.36-.68.55-.88.15-.16.29-.31.42-.5l.05-.07.12-.23c.28-.5.53-.97.75-1.64.25-.51.4-1.2.49-2.16.05-.48.13-1.57.05-2.19-.04-.7-.12-1.06-.22-1.49-.03-.13-.06-.27-.1-.44-.13-.98-.36-1.41-.62-1.83-.03-.05-.07-.11-.1-.18-.24-.88-.58-1.31-.93-1.71-.07-.08-.15-.16-.22-.28l-.1-.14s-.32-.29-.43-.38c-.3-.26-.58-.5-.87-.9l-.53-.7-.49.09c-.08-.07-.16-.16-.23-.22-.2-.2-.39-.39-.6-.56l-.11-.09-.13-.07c-.33-.17-.67-.31-1.01-.45-.25-.1-.5-.2-.75-.33l-.54-.27-.27.09s-.02-.01-.03-.02c-.3-.16-.75-.41-1.32-.42-.12,0-.24,0-.36.02-.05-.01-.11-.02-.16-.03-.26-.05-.58-.12-.93-.13-.4-.01-.78.05-1.13.19-.08,0-.2,0-.32,0-.34,0-.81,0-1.33.17-.91,0-1.68.48-2.32.96-.15.09-.29.15-.43.22-.39.18-.87.4-1.33.84-.26.23-.5.48-.74.72-.18.18-.36.36-.53.52-.54.33-.84.91-1.09,1.4l-.29.03-.28.88c-.16.49-.28.72-.41.96-.13.25-.24.47-.34.76l-.03.1-.02.1c-.08.41-.14.6-.19.75-.1.31-.17.57-.23,1.11-.08.72-.09,1.04-.06,1.9-4.2,1.8-7.97,4.57-11.02,8.05,0,0,0,0,0,0-.08-.11-.16-.24-.25-.38-.09-.14-.18-.3-.28-.48l-.67-1.23-1.28-.58c-.42-.19-1.15-.77-1.79-1.28-.28-.22-.58-.46-.89-.69-.03-.02-.06-.05-.09-.07-.98-.74-2.08-1.46-3.34-1.92,0,0,0,0,0,0,.31-5.24-1.06-10.63-3.93-15.22.39-.42.74-.99,1.04-1.75.24-.36.54-.99.76-2.2.14-.68.26-1.26.29-2.03,0-.01.05-1.4-.11-2.18-.07-.78-.19-1.16-.36-1.6-.04-.11-.09-.23-.14-.39l-.02-.06-.02-.06c-.11-.28-.24-.54-.38-.82-.12-.25-.26-.52-.41-.88l-.05-.13-.08-.12c-.33-.5-.73-1.08-1.2-1.61-.33-.44-.67-.69-.95-.9-.2-.15-.35-.26-.5-.45l-.26-.33-.4-.13c-.13-.05-.27-.08-.41-.12-.36-.1-.42-.11-.58-.33l-.34-.46-.56-.1c-.2-.04-.52-.18-.82-.32-.19-.09-.39-.18-.58-.26-.4-.23-.86-.35-1.38-.37-.13,0-.26,0-.39,0-.06,0-.12,0-.21,0-.03,0-.07,0-.12,0l-.33-.07-.27.02c-.1,0-.21-.02-.31-.03-.18-.02-.36-.04-.55-.05-.35-.01-.67.03-.97.12-.08,0-.16-.01-.23-.01-.84-.03-1.6.22-2.33.79-.48.42-.75.46-.83.46h-.24s-.22.1-.22.1c-.61.24-1.31.59-1.96,1.35-.59.38-1.08.91-1.49,1.6-.48.46-.87,1.12-1.18,2-.22.39-.37.87-.54,1.45-.05.16-.09.3-.12.39l-.03.09-.02.09c-.17.67-.27,1.41-.3,2.15-.04,1.1,0,1.73.13,2.2.1.72.27,1.4.48,1.97.22.81.52,1.28.78,1.7l.15.25.04.09.11.11c.07.09.13.22.2.36.29.54.64,1.19,1.29,1.51.11.09.29.27.41.4.25.26.54.54.87.8l.11.09.13.06c.1.05.29.19.45.31.4.29.89.65,1.43.79.23.07.45.16.68.25.27.1.57.22.88.32,1.07,2.62,1.53,6.15.07,9.02,0,0,0,0,0,0-.48-.05-.96-.1-1.43-.17-.01,0-.03,0-.04,0-.46-.06-.92-.14-1.37-.24-.06-.01-.12-.03-.18-.04-.37-.08-.73-.17-1.09-.28-.11-.03-.22-.06-.33-.1-.42-.13-.84-.28-1.25-.45l-2.39-1.02-1.98,1.69c-.09.08-.14.11-.17.11,0,0,0,0,0,0-.17,0-.4-.05-.66-.11-.26-.06-.56-.14-.84-.23-.95-.26-2.13-.59-3.45-.63h0c-.66-.02-1.3.03-1.93.16-.62.13-1.23.33-1.8.6l-.47.22-.4.33c-.14.11-.27.2-.41.28,0,0,0,0,0,0-1.35-1.61-2.48-3.36-3.13-5.21,0,0,.01,0,.02-.01.33-.24.59-.55.82-.82.04-.05.09-.11.13-.16l.36-.03.37-.61c.2-.32.38-.54.57-.78.18-.22.35-.43.53-.7.37-.58.69-1.29.99-2.18.22-.79.38-1.52.49-2.16.1-.96.11-1.43.06-2.1-.07-.99-.19-1.74-.36-2.23-.16-.76-.39-1.19-.6-1.57-.04-.08-.09-.16-.13-.25-.34-.85-.77-1.43-1.18-1.92l-.14-.17-.11-.07c-.06-.07-.12-.17-.19-.26-.32-.45-.74-1.05-1.49-1.3-.08-.06-.16-.14-.25-.22-.32-.29-.72-.65-1.26-.84l-.51-.18-.18.07c-.11-.08-.24-.19-.34-.27-.09-.08-.19-.15-.28-.23-.56-.54-1.23-.81-2.04-.84-.19,0-.37,0-.56.01-.09,0-.18,0-.27,0h-.38s-.23.13-.23.13c-.07-.01-.14-.03-.21-.05-.23-.06-.53-.13-.86-.14-.13,0-.26,0-.39.02l-.15.02-.14.05c-.08.03-.24.03-.41.04-.43.01-1.02.03-1.66.38l-.16.09-.13.13c-.09.08-.12.1-.46.15-.25.04-.49.08-.73.16l-.12.04-.11.06c-.57.29-1.11.6-1.61.9-.51.27-.9.71-1.21,1.07-.11.13-.21.26-.31.34l-.07.05-.06.06c-.36.33-.61.77-.84,1.15-.03.06-.07.12-.1.17l-.27.07-.27.64c-.18.43-.35.76-.49,1.06-.12.24-.22.46-.35.74-.29.77-.46,1.75-.53,2.31-.1.98-.12,1.7-.05,2.15.03.55.11.86.19,1.19.04.18.09.38.14.66.15,1,.4,1.49.69,2.02l.11.2.02.06.09.11c.06.1.11.24.18.38.24.55.53,1.22,1.11,1.58.08.08.18.21.26.3.28.33.6.71.94.95.1.08.21.19.32.29.27.26.59.55.97.78-.03,2.71.42,5.31,1.19,7.79,0,0,0,0,0,0-.33.18-.66.38-1,.6-.15.1-.3.2-.45.31-.11.08-.23.17-.34.26-.29.23-.58.47-.86.74-1.14.52-2.13,1.27-3.03,2.03-.3.25-.59.51-.87.76-.33.29-.76.67-1.12.95l-.57-.25-.48.2c-2.36-1.14-4.49-2.79-6.09-4.76-2.31-2.74-3.1-6.22-3.3-9.01,0,0,.01-.01.02-.02.37-.3.75-.61,1.13-1.01l.1-.12c.4-.48.78-.93,1.08-1.23l.06-.07.05-.07c.45-.59.83-1.33,1.16-2.29.08-.28.14-.42.2-.54.16-.35.29-.67.38-1.41.13-.67.18-1.37.17-2.19,0-.7-.05-1.02-.13-1.48-.03-.16-.06-.34-.1-.6v-.07s-.03-.07-.03-.07c-.17-.69-.36-1.3-.59-1.83-.22-.92-.52-1.36-.86-1.78-.06-.08-.12-.15-.19-.25l-.11-.17-.15-.14c-.21-.19-.52-.56-.85-.96l-.13-.16c-.66-1.04-1.45-1.48-2.07-1.75l-.24-.14-.25.02c-.08-.05-.2-.13-.28-.18-.28-.19-.63-.42-1.14-.61-.23-.07-.47-.11-.71-.16-.37-.07-.55-.1-.71-.22l-.17-.13-.44-.17c-.37-.15-.83-.34-1.38-.35-.46-.01-.9.1-1.3.32,0,0-.41-.03-.51-.03-.38-.01-.95.01-1.48.33-.13.07-.31.11-.54.15-.3.06-.68.14-1.08.32-.5.15-.89.44-1.22.68-.12.09-.23.18-.3.22l-.33.09-.25.23c-.22.2-.44.35-.64.5-.28.19-.54.38-.79.62l-.08.07c-.28.29-.51.64-.71.94-.09.14-.18.28-.26.38l-.04.02-.14.14c-.39.37-.62.9-.84,1.4-.03.07-.06.14-.09.2l-.21.11-.39,1.4c-.13.48-.23.84-.3,1.03-.26.75-.23,2.29-.23,2.29,0,1.65.2,2.23.4,2.59.06.12.19.57.28.9l.18.62.04.08c.26.57.56,1.08.88,1.62l.07.12c.3.52.61.85.89,1.15.13.14.27.28.41.47l.05.06.05.06c.09.09.18.2.27.32.41.49.95,1.13,1.76,1.34-.59,8.58,2.55,16.82,8.48,23.05h0c-.49.31-.91.69-1.28,1.11,0,0-.01.02-.02.02-.36.42-.67.87-.93,1.34,0,.02-.02.03-.02.05-.12.22-.24.45-.34.67,0,0,0,.02-.01.03-.11.23-.21.46-.29.69,0,.02-.02.04-.02.06-.07.19-.14.38-.21.56-.02.05-.03.09-.05.14-.06.19-.13.38-.18.56-.15.19-.3.37-.44.55-4.05-2.23-8.41-3.57-12.45-4.38,0-.49-.01-1.07-.11-1.51-.02-.08-.05-.23-.08-.39-.09-.45-.19-1-.35-1.46l-.11-.33-.08-.08c-.03-.08-.05-.16-.08-.25-.16-.5-.33-1.01-.65-1.4-.02-.05-.05-.1-.07-.15-.26-.57-.59-1.29-1.18-1.69-.34-.43-.7-.63-.92-.75-.03-.02-.07-.03-.12-.11l-.06-.11-.08-.1c-.7-.87-1.48-1.24-2.07-1.44-.43-.25-.84-.4-1.2-.53-.19-.07-.38-.13-.57-.22l-.08-.04s-.28-.1-.39-.13c-.42-.15-.93-.33-1.53-.35-.25,0-.49.01-.72.06-.03,0-.05,0-.08,0-.16,0-.33-.02-.49-.04-.22-.02-.44-.04-.65-.05-.19,0-.38,0-.57.02-.02,0-.04,0-.06,0-.73-.02-1.35.22-1.85.41-.13.05-.25.1-.38.14l-.16.05-.16.11c-.07.02-.14.03-.2.04-.36.05-.99.15-1.59.69-.58.29-1.14.7-1.69,1.21l-.14.13-.1.17c-.26.44-.44.56-.73.75l-.32.22-.29.33c-.34.38-.77.86-1.11,1.75-.14.35-.27.7-.39,1.01-.12.32-.22.59-.3.76l-.05.1-.11.36c-.17.55-.28.95-.35,1.84-.07.81-.05,1.25.02,2.14l.12,1.55.19-.03c.04.19.07.39.11.57.14.64.34.97.55,1.29.09.14.14.21.22.48l.06.19.11.17c.16.25.33.5.52.77.15.22.31.46.48.72.4.85.91,1.2,1.26,1.44.13.09.2.14.26.21l.37.41.27.03s.06.06.08.08c.31.31.76.74,1.41.88.47.34,1.12.8,1.96.82.07,0,.15,0,.22,0h.03c.51.14,1.09.28,1.74.3.03,0,.07,0,.1,0,.33.07.71.13,1.1.14.52.02.99-.06,1.43-.22.18-.05.36-.1.53-.16.29-.09.61-.19.79-.19,0,0,.34.03.34.03l.31-.13c.59-.24,1.16-.47,1.69-.68l.12-.05,1.25.53c2.53,1.2,4.7,2.51,6.42,3.86.97.79,1.99,1.68,2.92,2.68-.24.65-.45,1.31-.64,1.99-.02.08-.04.16-.07.25-.18.65-.34,1.31-.49,1.96-.47,1.75-.9,3.8-1.28,5.62-.15.74-.34,1.62-.5,2.36-1.25,1.49-1.46,4.03-1.65,6.38-.01.13-.02.26-.03.39-1.9-.53-3.74-1.29-5.48-2.24.08-.44.14-.88.18-1.23l.02-.16c.05-.86.02-1.61-.09-2.26-.07-.49-.17-.8-.27-1.1-.07-.2-.14-.42-.25-.87-.24-.81-.57-1.54-1.01-2.25-.14-.2-.29-.37-.45-.55-.21-.23-.36-.4-.54-.77l-.05-.09-.06-.09c-.46-.67-.96-1.02-1.36-1.3-.09-.06-.19-.13-.28-.2-.4-.35-.79-.53-1.11-.68-.2-.1-.37-.17-.5-.28-.71-.56-1.43-.72-2.01-.85l-.28-.07c-.39-.1-.78-.17-1.18-.23-.23-.04-.46-.08-.69-.13-.4-.12-.77-.19-1.14-.2-.49-.01-.96.07-1.41.25-.04,0-.07,0-.11,0-.87-.03-1.61.32-2.23.65l-.08.04-.07.05c-.09.06-.2.1-.41.17-.38.12-.96.31-1.51.85l-.09.09c-.12.14-.2.18-.42.3-.17.09-.38.2-.61.36-.74.24-1.19.96-1.5,1.47-.08.13-.16.26-.19.3-.41.45-.74,1.04-1,1.51l-.03.05c-.44.46-.68,1.23-.93,2.37-.2.65-.31,1.58-.34,2.05,0,.02-.1,1.6.11,2.43l.05.31c.15.93.27,1.58.58,2.06.08.17.17.34.26.52.14.27.3.58.47.97l.07.16.11.14c.13.17.26.37.4.58.23.34.47.7.73,1.03l.18.22.25.14c.1.06.34.28.52.44.22.2.45.41.68.58l.26.2.32.07c.15.03.48.25.98.65l.23.19.29.08c.49.13,1.06.38,1.56.59l.49.21.44-.13c.07.01.21.05.31.08.28.08.63.18,1.04.19.19.04.39.07.6.08.33.01.63-.03.89-.06.14-.02.28-.04.45-.04.12.02.24.04.36.04.22,0,.43-.02.62-.07,4.09,3.97,9.06,6.98,14.49,8.82,0,0,0,0,0,0,0,.31.01.6.02.9,0,.11,0,.23,0,.33,0,.25.01.49.02.72,0,.14,0,.28.01.41,0,.21.02.42.02.62,0,.14.01.28.02.42,0,.19.02.37.03.55,0,.14.02.27.02.4.01.17.02.33.04.49.01.13.02.26.03.38.01.15.03.3.04.44.01.12.03.24.04.35.02.14.03.27.05.4.02.11.03.22.05.32.02.12.04.25.06.36.02.1.04.2.06.3.02.11.05.22.07.33.02.09.05.18.07.27.03.1.05.2.08.29.03.09.05.17.08.25.03.09.06.18.09.26.03.08.07.16.1.24.03.08.07.16.1.23.04.08.08.15.12.23.04.07.07.14.11.2.05.08.1.15.14.22.04.06.07.12.11.17.06.08.12.15.18.23.04.04.07.09.11.13.1.11.21.23.32.33.4,1.69,1.07,3.06,2.5,4.07.15.55.38,1.68.62,3.88l.03.29.07.28c.96,3.75,2.3,5.25,3.71,6.57.56.53.82.77,1.2,1.6.18.41.37.86.56,1.31,1.36,3.24,2.9,6.91,6.66,7.03.07,0,.14,0,.21,0,.15.22.3.44.43.62.56.82,1.2,1.75,1.93,2.55.51.6,1.8,2.05,3.93,2.32.26.29.57.69.88,1.07,1.42,1.8,3.35,4.26,6.46,4.36.41.01.9-.02,1.43-.14.03.01.06.02.08.03h0c.62.21,1.2.35,1.69.46,1.03.25,1.4.35,1.78.69l1.48,1.3,1.25-.2c.22.15.48.34.68.49,1.25.93,2.97,2.19,5.27,2.26.71.02,1.41-.08,2.09-.29l1.21-.38c.43.48.88,1.04,1.22,1.45l.33.4.29.25c1.13.96,2.35,1.88,3.75,2.46.56.23,1.14.4,1.76.5.31.05.63.08.96.09,1.23.04,2.83-.24,4.47-1.42.97.46,2.11.87,3.41.91,1.28.04,2.94-.26,4.57-1.59,1.88.04,3.45-.67,4.6-1.19.24-.11.56-.26.8-.35.48.1.98.16,1.47.18,2.54.08,4.75-.99,6.6-2.02,2.25-.07,3.93-1.36,5.17-2.32.03-.02.05-.04.08-.06.79.29,1.5.39,2.06.41,4.19.13,6.65-3.63,7.76-5.66.06.01.12.02.17.04.61.13,1.38.29,2.21.31,2.37.07,3.89-.98,4.74-1.87l.44-.46.28-.57c.91-1.86,3.04-4.62,4.72-6.4l1.92,2.56,3.06-6c.34-.66.67-1.34,1-2,.46-.94,1.08-2.19,1.59-3.1l1.53.33,1.24-3.48c.65-1.82,1.2-2.78,1.79-3.8.49-.84,1.02-1.77,1.53-3.04.13-.16.24-.35.36-.55.05-.08.09-.17.13-.25.06-.12.12-.25.18-.38.05-.12.1-.24.15-.37.04-.12.08-.24.12-.37.05-.15.09-.3.13-.46,3.13-.59,6.2-2,8.96-4.1h.15c.07.04.26.16.39.24.29.18.64.4,1.06.54.49.19,1.07.38,1.73.4.3,0,.6-.02.95-.09.14,0,.27.03.41.05.26.04.52.08.78.09.05,0,.11,0,.16,0,.09.01.18.02.27.02.58.02,1.06-.18,1.41-.33.1-.04.2-.09.2-.11h.3s.28-.1.28-.1c.18-.07.35-.12.52-.16.42-.12.94-.26,1.52-.63.16-.11.33-.21.48-.3.39-.23.83-.49,1.29-.93.31-.25.56-.53.79-.79.1-.11.19-.23.28-.31l.11-.07c.58-.35.9-.99,1.19-1.55.08-.15.14-.29.16-.33l.21-.22.1-.29c.17-.5.31-.78.44-1.06.09-.19.17-.36.24-.55l.05-.13.02-.14c.08-.43.14-.69.19-.9.08-.32.14-.59.19-1.12.07-1.11.07-1.28.03-1.96Z"></path>
  <path class="cls-5" d="M176.15,62.64c-.06-.61-.17-1.36-.34-1.93-.19-.3-.41-1.16-.71-1.86-.29-.72-.66-1.08-1.08-1.55-.43-.19-.89-.85-1.38-1.29-.49-.69-1.01-1.21-1.58-1.16-.56-.26-1.13-.62-1.73-.73-.6-.05-1.21-.16-1.82-.38-.61-.25-1.24-.04-1.85-.03-.62.12-1.22-.13-1.83.33-.6.03-1.21.92-1.76.82-.57.47-1.11.62-1.63.95-.51.21-.98.83-1.38,1.32-.41.63-.76,1.16-1.05,1.63-.29.45-.53,1.06-.71,1.76-.18.53-.3,1.19-.36,1.77-.07.75-.07,1.43-.01,1.88.06.59.18.87.35,1.82.03.08.07.17.1.26-2.81,1.74-6.4,2.6-9.52,2.13,0,0,0,0,0-.01-.09-.22-.17-.44-.26-.66-.07-.17-.14-.34-.2-.51-.02-.04-.03-.08-.05-.12-.06-.14-.12-.28-.18-.42-.02-.05-.04-.1-.07-.15-.07-.16-.15-.32-.23-.47-.01-.02-.02-.04-.03-.06-.07-.13-.13-.24-.2-.35-.02-.03-.04-.07-.06-.1-.08-.12-.16-.22-.24-.31,0,0-.01-.01-.02-.02-.08-.07-.15-.13-.23-.17-.02-.01-.04-.02-.07-.03-.09-.03-.17-.05-.26-.04-1.02-1.67-1.94-9.46-3.29-6.21-1.74-4.33-3.73-6.51-5.93-7.35-2.12-3.67-4.51-4-6.98-6.36-2.49-1.94-5.23-.55-7.9-5.45-.17-.08-.34-.17-.51-.26-.05-.03-.11-.07-.16-.1-.12-.07-.24-.14-.35-.22-.06-.04-.12-.08-.18-.12-.11-.08-.23-.16-.34-.24-.05-.04-.1-.08-.15-.11-.13-.1-.26-.19-.39-.3-.01-.01-.03-.02-.04-.03-.44-.34-.88-.7-1.33-1.04,0,0-.02-.01-.03-.02-.14-.11-.29-.22-.44-.32-.03-.03-.07-.05-.1-.08-.13-.1-.27-.19-.4-.28-.04-.03-.09-.06-.13-.09-.13-.08-.26-.16-.38-.24-.05-.03-.1-.06-.15-.08-.13-.07-.25-.14-.38-.2-.05-.02-.1-.05-.16-.07-.13-.06-.25-.11-.38-.15-.05-.02-.1-.03-.16-.05-.13-.04-.25-.08-.38-.1-.05-.01-.1-.02-.15-.02-.13-.02-.26-.04-.39-.05-.05,0-.1,0-.14,0-.13,0-.27,0-.41.02-.04,0-.08.02-.11.02-.15.03-.29.05-.44.1h0c1.16-5.84-.26-12.04-3.6-16.97.1-.05.2-.1.3-.13.48-.39.92-.8,1.32-1.52.39-.31.73-.91,1-1.65.26-.3.47-.98.63-1.8.15-.71.23-1.17.26-1.8.02-.47,0-1.56-.09-1.89-.08-1.01-.24-1.13-.45-1.81-.21-.52-.48-.93-.79-1.69-.32-.48-.69-1.03-1.12-1.51-.43-.59-.92-.7-1.45-1.36-.54-.18-1.12-.19-1.68-.96-.59-.1-1.18-.46-1.79-.69-.6-.4-1.23-.1-1.85-.28-.62.06-1.23-.24-1.85.09-.61-.11-1.21-.07-1.8.39-.6.52-1.16.79-1.7.81-.54.21-1.05.48-1.53,1.12-.47.26-.91.68-1.32,1.42-.39.3-.72.86-1,1.69-.27.38-.49,1.4-.63,1.76-.15.59-.24,1.25-.26,1.86-.04,1.04,0,1.56.1,1.83.09.66.24,1.31.44,1.87.2.78.47,1.11.79,1.63.32.34.68,1.42,1.12,1.55.44.27.91.91,1.45,1.32.54.26,1.1.87,1.68,1.02.59.18,1.18.48,1.79.64.6.36,1.22.51,1.85.32.06-.01.11-.02.17-.02,1.71,4.26,1.72,9.37-1.17,13.04,0,0-.01,0-.02,0-.37-.03-.74-.05-1.11-.09-.13-.01-.26-.02-.38-.04-.26-.02-.52-.05-.78-.08-.15-.02-.3-.04-.46-.06-.24-.03-.48-.06-.72-.1-.16-.02-.32-.05-.48-.08-.23-.04-.47-.08-.71-.13-.16-.03-.32-.06-.48-.1-.24-.05-.48-.11-.72-.17-.15-.04-.31-.08-.46-.12-.26-.07-.53-.15-.79-.24-.13-.04-.27-.08-.4-.13-.4-.14-.79-.28-1.19-.45-3.49,2.98-6.7-1.05-10,.5-.19.16-.38.29-.57.42-.06.04-.13.08-.19.12-.12.08-.25.15-.37.21-.08.04-.15.08-.23.12-.11.05-.22.1-.33.14-.08.03-.16.07-.25.1-.1.04-.2.06-.3.09-.24.07-.47.13-.7.18-.01,0-.02,0-.03,0-.14.03-.28.05-.43.06-.03,0-.05,0-.08.01-.15.02-.31.03-.46.04-2.25-2.41-4.19-5.15-5.06-8.2.15-.08.31-.19.46-.35.56-.45,1.08-.43,1.58-.95.49-.3.97-1.22,1.38-1.26.43-.7.8-1.01,1.12-1.49.32-.51.6-1.15.82-1.8.22-.81.37-1.47.45-1.93.09-.88.1-1.28.05-1.86-.04-.66-.14-1.53-.31-1.93-.16-.81-.39-1.08-.66-1.64-.27-.69-.6-1.14-.97-1.6-.38-.25-.79-1.23-1.27-1.35-.48-.1-.98-.87-1.54-1.07-.57.23-1.16-.4-1.78-.87-.62-.64-1.27-.47-1.91-.46-.65.37-1.28-.13-1.9-.05-.63.22-1.24-.01-1.85.32-.61.58-1.19.45-1.74.62-.56.29-1.09.6-1.58.89-.49.24-.97,1.03-1.38,1.32-.42.38-.81,1.45-1.12,1.54-.33.77-.6,1.27-.82,1.75-.21.56-.37,1.36-.45,1.95-.09.86-.11,1.64-.05,1.84.04.77.16.91.31,1.8.15.98.38,1.25.66,1.77.28.34.59,1.52.97,1.63.38.31.8.99,1.27,1.32.47.38.98,1.02,1.54,1.12.53.44,1.11.78,1.73.81-.08,3.38.7,6.62,1.97,9.7,0,0,0,0,0,0-.17.04-.33.09-.5.14-.02,0-.04.01-.06.02-.15.05-.31.1-.46.15-.03.01-.06.02-.1.03-.14.05-.29.11-.43.18-.04.02-.08.03-.13.05-.13.06-.27.13-.4.2-.05.03-.1.05-.15.08-.13.07-.26.16-.39.24-.05.03-.11.06-.16.1-.13.09-.26.19-.39.29-.05.04-.11.08-.16.12-.14.11-.27.24-.41.36-.05.04-.09.08-.14.12-.18.17-.37.36-.55.57-2.85.75-5.69,5.66-8.2,4.55-.97.39-1.96,2.21-2.92,4.06-.16.31-.32.62-.48.92-.16.3-.32.6-.48.89-.16.29-.32.56-.47.82-.23.39-.47.73-.69,1.01-.23.28-.45.5-.67.64-.07.04-.15.08-.22.11-.07.03-.14.04-.22.04s-.14,0-.21-.02c-.07-.02-.14-.05-.21-.09-.28-.17-.55-.55-.81-1.17h0s0,0,0,0c-.6,1.3-1.16,1.83-1.7,2-.2.07-.4.08-.6.07-.13,0-.26-.03-.39-.05-.06-.01-.13-.03-.19-.04-.13-.03-.26-.06-.38-.08-1.02-.19-2.01-.07-3.06,3.8-.19.25-.38.49-.56.72-.04.05-.08.1-.12.16-.12.15-.24.3-.37.45-.45.56-.89,1.1-1.32,1.69-4.49-2.97-9.8-4.74-15.11-5.71.11-.52.19-1.07.23-1.33.06-.76.06-1.65-.02-2.02-.08-.3-.21-1.2-.4-1.77-.2-.2-.43-1.5-.74-1.66-.3-.59-.64-1.56-1.05-1.57-.39-.78-.85-.44-1.32-1.3-.48-.59-1-.86-1.56-1.03-.55-.37-1.15-.48-1.76-.76-.62-.2-1.26-.53-1.93-.33-.67.04-1.32-.15-1.96-.06-.64-.07-1.27.27-1.87.47-.61.4-1.16.07-1.72.71-.54.24-1.06.61-1.54,1.06-.49.82-.92,1.04-1.31,1.31-.39.45-.73.74-1.04,1.55-.3.73-.55,1.48-.73,1.85-.19.62-.3.84-.37,1.81-.06.7-.04,1.06.02,1.9.09-.02.21,1.05.4,1.9.18.85.46.69.74,1.66.3.47.66.96,1.05,1.57.39.88.84.84,1.32,1.37.49.05.99,1.09,1.56.96.55.37,1.13.93,1.76.77.62.15,1.26.35,1.93.33.66.14,1.32.24,1.96,0,.64-.16,1.27-.45,1.86-.4.6-.25,1.18-.48,1.72-.69.54-.27,1.06-.52,1.54-1.09.06-.05.11-.11.16-.16.53.22.97.41.97.41,2.56,1.21,5.09,2.67,7.28,4.38,1.7,1.38,3.29,2.85,4.57,4.55-.26.57-.51,1.25-.76,2.04,0,.03-.02.06-.03.09-.12.37-.23.77-.34,1.2-.02.07-.04.14-.06.22-.11.44-.22.89-.34,1.38-.29,1.05-.56,2.26-.82,3.46-.13.6-.26,1.21-.38,1.79-.31,1.46-.59,2.82-.83,3.78-.24.96-.45,1.52-.61,1.4-.02-.12-.05-.2-.07-.25,0,0,0-.02,0-.02-.02-.05-.05-.07-.07-.07,0,0,0,0-.01,0-.02,0-.05.04-.07.08,0,0,0,.02-.01.03-.02.06-.05.13-.07.22,0,.01,0,.03,0,.04-.02.1-.05.22-.07.35,0,0,0,.02,0,.02-.02.13-.05.29-.07.45,0,.02,0,.04,0,.06-.02.16-.04.34-.07.53,0,.03,0,.07-.01.1-.02.18-.04.38-.06.58,0,.04,0,.08-.01.13-.02.2-.04.41-.06.63,0,.04,0,.08-.01.12-.02.23-.04.46-.06.69,0,0,0,.02,0,.03-.02.25-.04.5-.06.74,0,.02,0,.03,0,.05-.02.25-.04.49-.05.73,0,.03,0,.06,0,.09-.02.23-.03.46-.04.68,0,.04,0,.09,0,.13-.01.22-.03.44-.04.65,0,.03,0,.05,0,.07-.01.22-.02.44-.03.64,0,0,0,0,0,.01-.03.58-.05,1.07-.06,1.41-.11,3.73.11,2.9.38,6.5.02.23.04.49.05.76.01.16.02.31.03.48,0,.1.01.21.02.31.02.31.04.63.05.98.02,1.51.05,2.77.1,3.83.02.53.04,1,.07,1.43.07,1.07.15,1.84.24,2.41.07.46.16.78.24,1.02.04.12.09.22.14.3.05.08.1.15.15.2.32.36.7.29,1.08,1.3.86,5.28,2.29-.83,3.45,9.49,1.31,5.13,3.02,3.82,4.77,7.66,1.31,2.95,2.69,7.25,4.34,5.6,1.62-.53,3.21,3.19,4.95,5.06,1.73,2.07,1.81-.25,3.7,2.04,1.91,1.97,3.83,5.9,6.01,3.82.23.15.46.28.7.39h0s0,0,0,0c.79.38,1.6.55,2.42.74.05.01.1.03.15.04.11.03.22.05.33.08.19.05.38.11.57.17.05.02.1.03.16.05.2.07.41.15.61.25.04.02.09.04.13.06.21.1.42.22.64.35.03.02.06.04.09.06.23.15.45.32.68.51,2.26-.36,4.46,3.53,6.85,2.77,2.47-3.29,4.8-.34,7.18,2.58,2.41,2.05,4.87,3.6,7.54-.34,2.52,1.06,4.95,3.85,7.54-.23,2.42,1.71,4.93-1.34,7.3-1.11,2.34.84,4.71-.64,7-1.95,2.22.93,4.54-3.21,6.64-2.73,2.06,1.83,4.14.69,6.23-3.37,2.08-3.71,5.72.17,7.58-1.79.78-1.57,2.34-3.83,4.01-5.83.26-.31.52-.61.78-.9.26-.29.52-.58.78-.85.26-.27.51-.53.76-.77.5-.48.98-.9,1.43-1.23.66-.49,1.24-.77,1.66-.76.21,0,.38.09.51.26h0s0,0,0,0c.87-1.7,1.7-3.49,2.49-4.93,1.01-1.86,1.94-3.15,2.76-2.97.2-.56.39-1.06.58-1.51.57-1.35,1.1-2.26,1.59-3.11.16-.29.33-.57.48-.85.47-.87.92-1.81,1.34-3.23.29,2.07.79-3.78,1.15-6.22.1-.67.19-1.08.26-1.01.05.05.09.31.12.85,0,0,0,0,0,0h0c.03-.27.06-.52.1-.76s.06-.47.09-.68c.06-.42.12-.79.17-1.12.33-1.94.57-2.18.77-2.11.05-.45.09-.88.13-1.29.01-.12.02-.22.03-.34.03-.29.06-.58.09-.85.01-.12.03-.24.04-.36.02-.23.05-.46.07-.67.01-.14.03-.27.04-.4.02-.18.04-.36.06-.53.01-.13.03-.25.04-.37.02-.17.04-.33.06-.49.01-.1.02-.21.04-.3.02-.18.04-.35.06-.51,0-.06.01-.12.02-.17.03-.21.05-.41.07-.59,0-.06.01-.11.02-.16.02-.12.03-.23.04-.33,0-.07.02-.12.03-.18.01-.08.02-.15.03-.22,0-.06.02-.11.02-.16,0-.06.02-.11.02-.16,0-.04.01-.09.02-.13,0-.04.01-.07.02-.1,0-.03.01-.07.02-.1,0-.02,0-.04.01-.06,0-.02.01-.05.02-.07,0,0,0,0,0-.02.01-.03.02-.04.03-.02,0,.38,0,.52,0,.26,0-.14,0-.23,0-.26,0-.21,0-.49,0-.81,0-.28,0-.6,0-.94,0-.01,0-.03,0-.04,0-.15,0-.31,0-.48,0-.06,0-.12,0-.19,0-.17,0-.33,0-.5,0-.01,0-.02,0-.03,0-.19,0-.38,0-.57,0-.03,0-.06,0-.09,0-.19,0-.37,0-.56,0-.04,0-.08,0-.12,0-.17,0-.33,0-.5,0-.03,0-.05,0-.08,0-.18,0-.35,0-.52,0-.05,0-.1,0-.15,0-.15,0-.29,0-.43,0-.03,0-.07,0-.1,0-.15,0-.29,0-.43,0-.03,0-.07,0-.1,0-.14,0-.28-.01-.4,0-.02,0-.04,0-.07,0-.11,0-.21-.02-.31,0-.02,0-.04,0-.06,0-.1-.01-.19-.02-.26,0-.02,0-.03,0-.05,0-.07-.02-.14-.03-.18-.22-.72-.57-.65-.91-4.99-.02.13-.04.24-.06.33,0,.03-.01.05-.02.08-.01.05-.02.11-.04.15,0,.02-.01.04-.02.06-.01.03-.02.05-.03.07,0,.01-.01.02-.02.02,0,0-.02.01-.03.01,0,0-.01,0-.02-.01,0,0-.02-.02-.03-.04,0-.01-.01-.03-.02-.04,0-.02-.02-.05-.03-.08,0-.02-.01-.04-.02-.07,0-.04-.02-.08-.03-.12,0-.03-.01-.06-.02-.09,0-.05-.02-.11-.03-.17,0-.04-.01-.07-.02-.11,0-.07-.02-.14-.03-.21-.01-.09-.02-.19-.04-.29,0-.06-.01-.11-.02-.17,0-.08-.02-.16-.03-.24,0-.05-.01-.1-.02-.15,0-.09-.02-.19-.03-.29,0-.04,0-.09-.01-.13-.01-.11-.02-.21-.03-.32,0-.03,0-.06,0-.09-.05-.53-.1-1.09-.15-1.62,4.2-1.18,8.05-3.53,11.05-6.68.41.12.83.28,1.26.52.6-.02,1.2.49,1.81.44.63-.31,1.24-.06,1.85-.02.62-.17,1.23.02,1.83-.29.61-.32,1.19-.45,1.76-.62.57-.5,1.12-.81,1.63-1.14.51-.12.98-1.04,1.38-1.28.41-.56.74-.64,1.05-1.67.3-.73.52-.91.71-1.85.19-.89.3-1.1.36-1.69.06-.43.05-.7,0-1.76Z"></path>
  <g>
    <path class="cls-5" d="M48.89,36.66c-2.21-2.61-3.37-5.88-3.82-9.25-.74.4-1.44.4-1.89.39-.41.09-.8.12-1.15.14-.21.01-.42.03-.63.06l-.24.04-.24-.04c-.16-.03-.31-.06-.47-.1-.24-.05-.46-.1-.63-.1-.06,0-.11,0-.15.01l-.45.13-.44-.16c-.1-.03-.24-.06-.42-.08-.12-.02-.26-.04-.41-.07-.27,8.12,3.11,15.52,8.85,20.92l3.7-8.09,1.49,3.61c.64-1.11,1.34-2.1,2.18-2.87-2.02-1.21-3.84-2.74-5.29-4.55Z"></path>
    <path class="cls-5" d="M138.4,37.57c-.18-.34-.36-.6-.52-.85-.17-.25-.32-.48-.46-.73l-.06-.11s-.2-.6-.27-.82c-.07-.21-.15-.46-.22-.66-3.42,1.56-6.48,3.83-9.03,6.62,1,.31,2.25.78,3.51,1.75l.17.13.15.15c.61.58,1.26,1.02,2.01,1.52.36.24.74.5,1.14.78,1.31-2.37,3.1-4.32,5.22-5.93-.68-.43-1.23-1.03-1.65-1.86Z"></path>
    <path class="cls-5" d="M159.03,109.13c-.32-.24-.73-.55-1.11-1.1l-.11-.16-.06-.18c-.13-.37-.2-.45-.34-.6-.17-.18-.41-.44-.63-.89-.25-.38-.4-.83-.55-1.27-.03-.09-.06-.18-.08-.25l-.1-.1-.11-.36c-.2-.68-.32-1.28-.38-1.91-.09.02-.18.05-.27.06-.05.52-.11,1.06-.17,1.67l-.54,5.39-.99-.36c-.09.61-.2,1.57-.29,2.26-.03.27-.07.55-.1.82,2.16-.55,4.2-1.55,6.05-2.83-.08-.07-.16-.13-.24-.19Z"></path>
    <path class="cls-3" d="M137.42,35.99l-.06-.11s-.2-.6-.27-.82c-.07-.21-.15-.47-.22-.67-3.42,1.56-6.48,3.84-9.02,6.63.78.24,1.7.58,2.66,1.17.21-.3.43-.6.65-.88,1.59-2.02,3.98-3.81,6.3-5.26-.01-.02-.03-.04-.04-.06Z"></path>
    <path class="cls-3" d="M155.95,104.22c-.2-.68-.32-1.27-.38-1.9-.09.02-.18.04-.27.05-.05.52-.11,1.06-.17,1.67l-.05.47c.3-.06.6-.14.89-.23l-.02-.06Z"></path>
    <path class="cls-3" d="M40.11,27.84c-.1-.02-.2-.03-.28-.03-.06,0-.11,0-.15.01l-.45.13-.44-.16c-.1-.03-.24-.06-.42-.08-.12-.02-.25-.04-.4-.07-.27,8.13,3.08,15.53,8.83,20.93l2.21-4.84c-1.44-.99-2.82-2.05-3.99-3.13-3.96-3.68-4.76-9.97-4.92-12.76Z"></path>
    <g>
      <path class="cls-5" d="M27.37,96.2c-.15-1.22-.22-1.92-.15-4.48.01-.41.04-1.08.09-1.87l-6.28-2.24h-.09c-.32.71-.69,1.22-1.12,1.54-.34.35-.71.76-1.13,1.21-.46.53-.95.84-1.38,1.11-.12.08-.25.16-.38.24l-.09.06-.06.03v.14s8.67,4.66,8.67,4.66l2.04.64c-.04-.43-.09-.76-.12-1.05Z"></path>
      <path class="cls-3" d="M27.37,96.2c-.04-.29-.07-.54-.09-.8-3.52-1.08-6.95-2.73-9.36-4.32-.21.15-.41.28-.61.4-.12.08-.25.16-.38.24l-.09.06-.1.05c-.14.06-.27.15-.41.24-.01,0-.03.02-.04.03,3.32,2.97,7.19,5.28,11.35,6.84-.1-1.43-.19-2.17-.26-2.74Z"></path>
    </g>
    <path class="cls-5" d="M154.64,37.49c-.44.52-.91.87-1.42,1.33-.51.29-1.04.44-1.61.99-.57.6-1.15.67-1.75.62-.6.09-1.21.36-1.83.32-.62.14-1.24.21-1.85-.05-.62-.08-1.22-.32-1.82-.43-.6,0-1.17-.76-1.74-.77-.56-.32-1.1-.69-1.6-1.14-.51-.26-.96-.67-1.34-1.43-.38-.72-.72-1.12-1-1.63-.27-.8-.48-1.55-.65-1.85-.16-.74-.28-.79-.31-1.72-.03-.99-.03-1.22.05-1.92.08-.85.19-.65.4-1.75.19-.55.43-.75.76-1.76.3-.03.7-1.44,1.13-1.56.43-.38.91-.91,1.42-1.38.51-.49,1.05-.58,1.61-.94.57-.43,1.16-.8,1.75-.68.6-.34,1.21-.09,1.83-.25.62-.3,1.24,0,1.85.06.63-.25,1.21.63,1.82.42.59.3,1.18.48,1.74.77.56.45,1.08,1.24,1.6,1.15.5.66.95.99,1.35,1.36.39.59.74.65,1,1.7.28.61.51.61.66,1.75.16.76.27.98.31,1.83.06.26.03,1.21-.04,1.88-.08.86-.21,1.45-.4,1.78-.2.65-.44,1.07-.76,1.65-.31.44-.67.54-1.13,1.67Z"></path>
    <path class="cls-5" d="M172.68,108.72c-.52.53-1.06.73-1.63,1.12-.57.36-1.15.41-1.76.64-.6-.03-1.22.58-1.83.4-.62.05-1.23-.24-1.85-.1-.62.14-1.23-.04-1.82-.27-.59-.18-1.16-.78-1.72-.83-.54-.62-1.08-.75-1.58-1.18-.49-.52-.97-.67-1.38-1.28-.4-1.16-.78-1.01-1.07-1.74-.3-.34-.52-1.49-.71-1.67-.18-.59-.29-1.14-.35-1.76-.06-.4-.05-1.28.01-1.93.07-.92.18-1.17.36-1.81.17-.36.41-1.05.71-1.73.29-.54.65-1.19,1.05-1.7.4-.36.86-.73,1.38-1.25.52-.62,1.07-1.12,1.63-1.08.57-.44,1.15-.46,1.76-.68.6-.18,1.21.03,1.83-.31.62-.16,1.22.42,1.85,0,.62-.09,1.22.33,1.81.4.6,0,1.19-.21,1.73.7.55.39,1.07,1.12,1.58,1.17.5.17.96.74,1.38,1.29.42.4.78,1.16,1.08,1.66.31.28.52,1.47.71,1.75.19.29.3.93.35,1.74.05.76.07.77-.01,1.95-.06.7-.17.8-.36,1.87-.17.44-.4.78-.71,1.67-.29.31-.65,1.39-1.05,1.63-.4.16-.87.93-1.38,1.31Z"></path>
    <path class="cls-5" d="M20.73,80.93c.1.58.12,1.23.08,1.98-.03.2-.14,1.18-.3,1.83-.17.79-.39,1.35-.65,1.75-.28.76-.61,1.35-.97,1.57-.37.39-.79.83-1.25,1.35-.47.54-.96.76-1.51,1.13-.54.26-1.12.78-1.72.85-.6-.04-1.25.61-1.91.44-.66-.08-1.32.23-1.96.01-.65.05-1.26-.41-1.88-.22-.61-.27-1.19-.51-1.76-.66-.55-.44-1.08-.83-1.59-.94-.5-.38-.95-.9-1.38-1.14-.42-.52-.79-1.16-1.11-1.59-.32-.74-.6-1.18-.82-1.67-.23-.22-.37-1.4-.47-1.93-.11-.3-.11-1.46-.08-2.04.03-.46.14-1.3.3-1.78.17-.8.4-1.69.65-1.8.27-.47.6-1.12.97-1.52.37-.44.81-1.51,1.25-1.39.46-.49.95-.44,1.5-1.09.55-.54,1.11-.44,1.72-.86.61-.32,1.25-.62,1.91-.43.67-.41,1.33-.36,1.96-.15.64.14,1.27.21,1.88.36.61.15,1.2.22,1.76.66.55.44,1.09.5,1.59.94.5.38.96.59,1.38,1.2.41.84.79,1.07,1.12,1.53.33.52.6,1.12.81,1.83.21.91.38,1.09.47,1.76Z"></path>
    <path class="cls-5" d="M49.99,20.62c-.25.73-.56,1.34-.91,1.8-.35.35-.75.84-1.2,1.38-.44.47-.93.81-1.45,1.26-.52.58-1.06.48-1.63.79-.58.58-1.17.54-1.77.52-.61.17-1.23.12-1.86.23-.63-.11-1.26-.34-1.9-.15-.63-.22-1.27-.08-1.88-.57-.63,0-1.2-.61-1.74-.84-.55-.04-1.03-.81-1.47-1.28-.44-.57-.85-.84-1.19-1.44-.35-.59-.64-1.08-.89-1.62-.24-.78-.42-1.5-.56-1.71-.14-.26-.21-.98-.21-1.9-.01-.6.05-1.51.15-1.83.11-.31.29-1.01.55-1.93.24-.13.56-1.32.91-1.65.34-.18.76-1.06,1.2-1.53.44-.4.92-.64,1.44-1.12.51-.14,1.07-.8,1.63-.93.57-.29,1.16-.23,1.77-.54.62-.36,1.23,0,1.86-.21.64-.51,1.27-.12,1.9.11.62.47,1.26.43,1.88.61.62.23,1.19.89,1.74.85.54.23,1.04.55,1.47,1.27.44.54.84,1.05,1.2,1.36.35.55.66.64.89,1.71.24.56.43,1.19.56,1.73.12.88.21.98.21,1.88,0,.75-.04,1.37-.16,1.96-.13,1.04-.28.84-.54,1.79Z"></path>
  </g>
  <g>
    <path class="cls-3" d="M44.75,61.9c-.29-.37-.76-1-1.16-1.78-.65-1.26-1.12-2.9-.4-4.37l-2.38,2.99v.02c1.4.93,2.72,1.97,3.94,3.14Z"></path>
    <path class="cls-6" d="M35.9,66.52s-.72,1.43-1.18,2.91c0,0,.73-.72,1.42-.12s1.19.75,1.19.75c0,0,.26-2.58.29-2.63s-1.73-.91-1.73-.91Z"></path>
    <path class="cls-3" d="M42.87,66.82h0c-.25-.24-.51-.47-.76-.7,0,0,0,0,0,0-.52-.46-1.04-.89-1.57-1.31,0,0,0,0,0,0-7.44-5.86-16.04-7.96-16.64-8.1-.02,0-.03,0-.03,0l-.13.9-.3.73s0,.05.01.09c.12.05.2.08.2.08,2.56,1.21,5.09,2.67,7.28,4.38,2.48,2.01,4.74,4.23,6.16,7.03,0,0,0,0,0,0l.02.07.33.82,2.16.07,3.88-3.48c-.2-.19-.39-.38-.59-.57Z"></path>
    <path class="cls-1" d="M46.49,62.82c-.21-.22-1-.65-1.45-.58.09.04.19.08.26.15.76.8-.43,3.18-2.67,5.33-2.24,2.15-4.67,3.24-5.44,2.44-.05-.05-.06-.12-.09-.18-.05.37.27,1.19.46,1.38.76.8,3.34-.44,5.76-2.76,2.42-2.32,3.94-4.99,3.17-5.79Z"></path>
    <path class="cls-1" d="M25.83,52.5s-.11.9-.65,1.99c0,0,1.68.63,2.27-1.37l-1.63-.62Z"></path>
    <path class="cls-1" d="M22.4,58.36s.74-.77,1.39-1.8c0,0,1.47,1.35.07,2.9l-1.46-1.11Z"></path>
    <path class="cls-1" d="M47.38,63.4s-.24,2.71-2.71,4.85c0,0,2.86-.88,3.31-3.19s-.6-1.66-.6-1.66Z"></path>
  </g>
  <g>
    <path class="cls-3" d="M79.62,34.05c.7.75,1.43,1.47,2.16,2.15-.52-1.65.66-2.88.66-2.88-.88.66-2.79.73-2.82.73Z"></path>
    <path class="cls-6" d="M69.5,35.56h-.05c-2.36-.04-4.34,2.73-4.34,2.73,5.37.34,8.02,4.2,8.02,4.2l.02-.04c-1.4-2.19-2.67-4.5-3.65-6.89Z"></path>
    <path class="cls-3" d="M76.75,42.74c-5.13-5.83-7.01-12.58-7.7-16.64l-1.48.76c.13,6.06,2.96,11.67,6.31,16.7l2.88-.82Z"></path>
    <path class="cls-1" d="M83.07,36.99c-.17-.24-.85-.77-1.28-.78.08.05.17.11.22.18.6.87-.91,2.94-3.36,4.62-2.45,1.68-4.93,2.34-5.53,1.47-.04-.05-.04-.12-.06-.18-.11.34.07,1.17.22,1.38.6.87,3.23.11,5.89-1.71,2.65-1.82,4.5-4.11,3.91-4.98Z"></path>
    <path class="cls-1" d="M74.8,25.77s-.81.4-2.01.56c0,0,.4,1.75,2.4,1.14l-.39-1.7Z"></path>
    <path class="cls-1" d="M66.84,25.79s1,.34,2.22.31c0,0-.24,1.85-2.3,1.54l.09-1.85Z"></path>
    <path class="cls-1" d="M83.38,36.63s.23.28.14.86-.57,1.48-.57,1.48c0,0,1.1-.6,1.04-1.48-.06-.95-.62-.86-.62-.86Z"></path>
  </g>
  <g>
    <path class="cls-1" d="M110.45,18.25s-.75.51-1.92.81c0,0,.62,1.68,2.52.82l-.6-1.63Z"></path>
    <g>
      <path class="cls-6" d="M111.3,38.58l-7.34-2.21-1.39-1.82-.08-.71c-1.82-.12-3.67-.29-5.53-.71-.64,1.57-1.08,4.17,2.37,5.11,5.09,1.39,11.96.33,11.96.33Z"></path>
      <path class="cls-3" d="M113.45,35.58c-.12.62-.28,1.24-.46,1.85l.32.88s2.35-2.15,5.03-1.05c-1.58-1.22-3.19-2.26-4.89-1.69Z"></path>
      <path class="cls-3" d="M105.87,36.96c.79-3.23,1.96-6.24,2.05-8.52.13-3.3-1.45-6.35-2.68-8.35,0,0-1.48,1.47-1.33,1.94,1.27,4.08.99,8.71-1.81,12.04,0,0,1.08,1.45,3.78,2.88Z"></path>
      <path class="cls-1" d="M113.64,37.95c.09-.29.1-1.2-.18-1.56,0,.1.02.21,0,.3-.34,1.06-3.02,1.14-5.98.2-2.97-.95-5.1-2.57-4.77-3.62.02-.06.07-.11.11-.17-.35.13-.92.81-1,1.07-.34,1.06,1.99,2.74,5.2,3.76,3.21,1.02,6.3,1.08,6.63.02Z"></path>
      <path class="cls-1" d="M105.33,38.03s4.02,1.41,7.25,1.09c0,0,1.03-.01,1.31-.71,0,0,.54,2.18-4.31,1.22s-4.26-1.59-4.26-1.59Z"></path>
    </g>
    <path class="cls-1" d="M103.16,20.85s1.04-.18,2.1-.78c0,0,.67,1.74-1.29,2.45l-.8-1.67Z"></path>
  </g>
  <g>
    <path class="cls-1" d="M162.76,72.07s-.85-.32-1.77-1.1c0,0-1.02,1.48.78,2.54l.99-1.43Z"></path>
    <path class="cls-6" d="M148.53,69.86c-.84-1.45-1.7-5.09-2.78-4.9-.41-.67-.8-2.32-1.21-3.85-.89,1.35-2.25,4.65-2.07,12.09l1.7-3.33c-.13-.61,4.48.81,4.35,0Z"></path>
    <path class="cls-3" d="M152.22,82.19c-.32,2.17-.52-.97-.77-3.52-1.71.48-3.48.78-5.27.85-.37,0-.6.02-1,0l-1.32.05s5.24,3.35,9.37,9.63c-.02-.98-.05-1.76-.1-2.02-.22-.72-.57-.65-.91-4.99Z"></path>
    <path class="cls-3" d="M158.43,67.72c-.72.62-1.48,1.16-2.27,1.58-2.84,1.51-6.99,1.61-9.95,1.44l-2.41-.17s.7-1.92.7-1.95,1.02-1.04,1.02-1.04l1.06.51c3.15.92,7.05.26,10.17-1.45l1.69,1.07Z"></path>
    <path class="cls-1" d="M143.65,79.92c.31.04,1.23-.12,1.55-.47-.1.03-.21.06-.31.04-1.13-.15-1.7-2.85-1.28-6.03.43-3.18,1.69-5.63,2.82-5.48.07,0,.13.06.19.08-.2-.33-.99-.79-1.26-.82-1.13-.15-2.42,2.51-2.88,5.95-.46,3.44.04,6.58,1.17,6.73Z"></path>
    <path class="cls-1" d="M157.2,65.86s.43.97,1.27,1.84c0,0-1.52,1.07-2.69-.66l1.42-1.19Z"></path>
    <path class="cls-1" d="M144.9,66.76s-1.98.88-2.38,2.81c0,0-.13-1.58,1.18-2.57s1.2-.24,1.2-.24Z"></path>
    <path class="cls-1" d="M141.68,76.4s-.04,3.8,1.92,4.61c0,0-1.42.62-2.2-2.43-.33-1.3.28-2.17.28-2.17Z"></path>
  </g>
  <g id="SvgjsG1123">
    <g>
      <path class="cls-2" d="M48.75,75.91s6.65,5.06,4.11,13.44c0,0,.11-6.07-4.11-13.44Z"></path>
      <path class="cls-3" d="M48.75,75.91s5.06,5.51,3.98,13.31l-4.88-3.77s2.64-2.34.9-9.54Z"></path>
      <path class="cls-3" d="M53.67,96.9s-.29-5.78-6.07-7.93l-4.28,2.27,10.35,5.66Z"></path>
      <path class="cls-6" d="M32.99,99.24s6.21-5.17,12.14-4.74l-6.92-3.68s3.57-3.19,7.83-3.73l-4.62-5.81s6.04.55,11.44,8.07l-7.28,1.56s4.24.97,8.33,6.15c0,0-13.83-1.15-20.92,2.18Z"></path>
      <path class="cls-1" d="M38.21,90.82l6.92,3.68s-4.91-.75-12.14,4.74c0,0,4.26-5.48,9.17-5.42l-3.95-3Z"></path>
    </g>
    <g>
      <path class="cls-3" d="M101.84,41.57s-9.83,10.63-18.36,10.79c-8.53.16-14.98-4.38-14.98-4.38,0,0,13.05,5.91,33.34-6.41Z"></path>
      <path class="cls-6" d="M109.32,41.48s-14.51,15.69-27.1,15.93c-12.59.24-22.11-6.46-22.11-6.46,0,0,19.27,8.72,49.21-9.47Z"></path>
      <path class="cls-1" d="M60.11,50.95s7.95,3.74,21.11,1.36c0,0-6.92-.39-12.73-4.32,0,0,1.38,3.31,5.54,3.97,0,0-3.44.83-13.92-1Z"></path>
    </g>
    <g>
      <path class="cls-3" d="M147.94,84.8s-.88,2.68-3.96,4.43l2.88,2.2-3.21,2.37s3.61,0,5.8,3.35c0,0-.47-1.91-2.38-3.9l2.35-1.95-2.58-1.69s2.3-1.68,1.11-4.8Z"></path>
      <path class="cls-6" d="M147.94,84.8s-.88,2.68-3.96,4.43l2.88,2.2-3.21,2.37s2.38-.08,4.62,1.95c0,0-1.48-2.46-3.33-2.55l2.47-1.82-2.12-1.65s2.78-1.79,2.65-4.92Z"></path>
      <path class="cls-1" d="M145.36,88.31s-1.02.8-1.38.92l2.88,2.2-3.21,2.37,2.27-2.39-2.59-2.23s1.45-.47,2.03-.87Z"></path>
    </g>
    <g>
      <path class="cls-3" d="M139.38,68.99s-6.76,2.78-13.73-.9l5.06-3.2s1.3,3.29,8.67,4.1Z"></path>
      <path class="cls-3" d="M129.68,47.71s2.46,7.76-.3,12.21l-6.58,2.37s6.44-7.69,6.88-14.57Z"></path>
      <path class="cls-6" d="M129.68,47.71s.42,8.08-3.48,12.57l7.1-3.34s1.11,4.17-1.39,7.67l7.41.55s-4.51,4.06-13.7,2.92l3.19-5.29s-3.32,2.82-9.92,2.99c0,0,9.21-10.39,10.8-18.07Z"></path>
      <path class="cls-1" d="M125.61,68.08l3.19-5.29s-3.68,2.94-9.92,2.99c0,0,4.77,1.61,7.51-.81,0,0-1.18,1.63-.78,3.11Z"></path>
    </g>
    <g>
      <path class="cls-3" d="M73.26,135.83s10.42-6.71,21.41-7.34c10.99-.63,20.29,1.57,20.29,1.57,0,0-18.13-2.57-41.7,5.77Z"></path>
      <path class="cls-6" d="M63.61,136.35s15.39-9.91,31.6-10.83,29.95,2.32,29.95,2.32c0,0-26.76-3.79-61.55,8.51Z"></path>
      <path class="cls-3" d="M85.91,142.83s4.65-3,9.56-3.28c4.9-.28,9.06.7,9.06.7,0,0-8.09-1.15-18.62,2.58Z"></path>
      <path class="cls-6" d="M80.99,143.04s6.87-4.42,14.11-4.84c7.24-.41,13.37,1.04,13.37,1.04,0,0-11.95-1.69-27.48,3.8Z"></path>
    </g>
    <g id="SvgjsG1122">
      <path class="cls-1" d="M140.27,111.75c-.8-6.43-4.39-12.58-9.84-15.79-5.45-3.21-12.69-3.13-17.71.69-2.29,1.74-4.03,4.13-5.9,6.35-1.87,2.22-3.98,4.36-6.65,5.37-2,.76-4.39.73-6.25-.28-.96-.53-2.13-.4-2.96.33-1.59,1.39-3.92,1.94-6.04,1.63-2.83-.41-5.36-2.04-7.66-3.8-2.31-1.76-4.53-3.7-7.14-4.91-5.73-2.64-12.81-1.14-17.43,3.18-4.62,4.32-6.78,11.11-6.17,17.55.29,2.97,1.14,5.93,2.81,8.38,1.67,2.45,4.2,4.33,7.04,4.82,2.5.43,5.07-.22,7.38-1.28,2.31-1.05,4.43-2.5,6.64-3.76,6.96-3.96,14.9-6.08,22.87-6.12.59,0,1.17-.07,1.75-.19,7.79-1.7,16.09-1.37,23.75.99,2.43.75,4.82,1.7,7.3,2.22,2.49.53,5.13.61,7.48-.36,2.67-1.1,4.73-3.49,5.82-6.24,1.09-2.75,1.28-5.83.92-8.79Z"></path>
      <path class="cls-4" d="M69.89,119.02c.11,1.19.25,2.38.43,3.56.01.09.03.29.06.52.08.88.16,1.51.25,1.96-6.38-3.75-10.44-11.05-10.18-18.46.08-2.19.63-3.65,1.69-4.47,1.66-1.29,3.97-.59,5.41.61,2.61,2.17,2.46,4.3,2.26,7.25-.04.59-.08,1.2-.11,1.85-.08,2.38-.02,4.79.2,7.17ZM72.73,124.25c.77,1.2,1.96,1.95,3.13,1.96.79,0,1.58-.38,2.17-1.05.49-.56.75-1.24.76-1.9-1.87-1.28-3.49-3.18-4.72-5.54-1.29-2.49-2.01-5.17-2.54-7.47-.52,3.54-.54,7.16-.04,10.18.22,1.31.51,2.68,1.24,3.82ZM79.16,111.69c.13-.99.25-1.92-.23-2.72-.64-1.05-1.96-2.13-3.14-2.57-.49-.18-1.04-.24-1.57-.18-.35.04-.69.13-.99.27-.39.18-.92.54-1.15,1.19-.26.71-.11,1.52.09,2.37.52,2.28,1.23,4.93,2.5,7.38,1.18,2.27,2.73,4.09,4.51,5.31-.33-3.35-.37-6.75-.12-10.1.02-.31.06-.62.1-.93ZM82.85,122.81c.54.05,1.08-.19,1.39-.59.15-.2.25-.45.3-.73-1.82-1.78-3.18-4.04-3.95-6.48-.04,1.06-.02,2.41.11,4.1h0c.04,1.06.13,2.16.76,2.93.36.44.88.73,1.39.77ZM89.31,121.96c.55.03,1.11-.18,1.42-.53.11-.13.18-.26.23-.4-1.69-1.75-2.97-3.86-3.74-6.17-.09.98-.12,2.28,0,4.01h0c.02.9.1,1.82.69,2.46.35.37.86.61,1.38.64ZM85.3,121.31c.06-.52.22-1.33.5-2.62.07-.33.13-.62.15-.72.08-.49.16-.99.23-1.48.16-.97.32-1.96.45-2.95.15-1.12.18-1.32-.71-1.88-1.16-.73-2.55-1.2-3.63-1.54h0c-.41-.13-.74-.18-1-.15-.19.02-.34.08-.45.19-.27.26-.28.73-.26,1.16.2,3.76,1.96,7.44,4.72,9.99ZM92.2,117.71c.2-1.3.28-2.62.26-3.93,0-.16,0-.36,0-.58.01-.8.04-2.15-.35-2.59-.4-.45-1.67-.43-2.68-.21-.73.16-1.62.63-1.92,1.49-.22.64-.07,1.39.11,2.03.71,2.51,2.03,4.81,3.83,6.68.09-.39.24-.96.46-1.81.13-.48.26-.97.28-1.08ZM123.36,99.69c-.55-2.12-1.41-3.42-2.62-3.99-.58-.27-1.18-.35-1.77-.29-1.33.15-2.59,1.03-3.38,2.06-2.08,2.68-1.47,4.73-.63,7.57.17.57.34,1.15.51,1.78.6,2.31,1.06,4.68,1.37,7.04.15,1.18.27,2.38.35,3.57,0,.09.03.29.06.52.11.88.17,1.51.18,1.97,5.41-5.04,7.79-13.05,5.93-20.23ZM131.18,103.67c-1.87-3.81-4.68-6.12-5.82-6.94.01,2.72,0,13.26-.89,17.46l-.12.55c-.45,2.1-.92,4.28-.26,6.26.53,1.61,1.85,2.97,3.44,3.55,1.59.58,3.47.4,4.92-.48,1.88-1.14,3.13-3.51,3.26-6.18.12-2.51-.63-4.97-1.46-7.27-.9-2.49-2.06-4.89-3.07-6.95ZM136.57,114.25c.14.65.25,1.19.31,1.62,1.8-2.94,2.14-6.73.82-9.94h0c-.76-1.84-2.04-3.45-3.73-4.67-.94-.68-3.22-1.86-3.83-1.79-.05,0-.09.02-.11.04-.06.32.68,1.16,1.04,1.56.2.23.38.43.48.58.63.91,1.21,1.86,1.74,2.84,1.04,1.93,1.87,3.98,2.47,6.09.29,1.04.53,2.11.71,3.17.02.11.06.28.1.5ZM112.57,122.17c1.13-.26,2.14-1.26,2.63-2.59.46-1.27.46-2.67.38-4-.17-3.06-.98-6.59-2.26-9.93-.02,2.36-.14,5.14-.85,7.85-.68,2.57-1.85,4.78-3.4,6.43.15.65.55,1.25,1.15,1.69.72.53,1.57.73,2.34.55ZM110.85,102.34c-.83-.18-1.79,0-2.51.47-1.05.68-2.11,2.03-2.5,3.19-.3.88.02,1.77.36,2.71.1.29.21.58.3.88.97,3.22,1.67,6.55,2.08,9.89,1.48-1.57,2.59-3.69,3.25-6.16.7-2.66.82-5.41.83-7.75,0-.86-.02-1.69-.43-2.33-.37-.58-.96-.81-1.38-.91ZM105.01,120.37c.49-.15.94-.55,1.19-1.06.44-.89.29-1.97.11-3.01h0c-.24-1.69-.51-3.01-.78-4.04-.21,2.54-1.06,5.04-2.44,7.18.11.27.26.49.45.65.38.33.96.43,1.48.27ZM98.52,120.95c.5-.14.95-.49,1.21-.92.44-.75.31-1.66.14-2.53v-.02c-.25-1.71-.56-2.98-.86-3.91-.25,2.42-1.04,4.76-2.31,6.84.08.12.18.24.32.33.38.28.97.36,1.5.21ZM100.93,116.32c.04.1.16.37.3.67.55,1.2.88,1.96,1.05,2.45,2.15-3.09,3.06-7.07,2.44-10.78-.07-.43-.19-.89-.51-1.08-.13-.08-.29-.11-.48-.09-.26.03-.57.15-.94.36h0c-.98.56-2.24,1.33-3.21,2.29-.75.74-.68.93-.29,1.99.34.93.72,1.87,1.08,2.78.18.46.37.93.55,1.39ZM98.42,112.73c.04-.67.03-1.43-.33-2.01-.48-.77-1.45-1.04-2.2-1.04-.24,0-.48.01-.73.04-.83.09-1.62.33-1.85.74-.29.51.03,1.82.22,2.6.05.22.1.41.13.57.26,1.29.63,2.56,1.11,3.78.04.11.28.56.51,1,.41.78.67,1.3.84,1.66,1.36-2.22,2.15-4.75,2.29-7.35ZM92.16,122.26c.14.27.47.49.84.47.32-.02.6-.21.73-.44.13-.23.15-.49.16-.74.01-.54-.98-3.49-.98-3.49,0,0-1.11,3.51-.75,4.2ZM94.01,121.53c.06.24.13.49.31.69.18.2.49.33.81.27.37-.06.64-.36.71-.64.2-.75-1.65-3.94-1.65-3.94,0,0-.33,3.09-.19,3.62ZM53.14,109.64c-.15.27-.28.5-.35.67-.42,1.02-.78,2.08-1.08,3.15-.59,2.11-.96,4.29-1.08,6.48-.06,1.08-.06,2.18,0,3.25,0,.11,0,.29,0,.51,0,.67.02,1.21.05,1.65-2.4-2.48-3.55-6.1-2.96-9.52.34-1.96,1.24-3.82,2.62-5.37.83-.94,3.06-2.78,3.48-2.55.12.28-.42,1.26-.68,1.73ZM52.2,119.65c.34-2.62.94-5.22,1.48-7.45.99-4.11,3.23-6.98,4.17-8.04.58,2.66,2.89,12.94,4.66,16.85l.24.51c.9,1.96,1.83,3.98,1.62,6.05-.17,1.68-1.16,3.3-2.58,4.21-1.42.91-3.3,1.14-4.9.6-2.08-.71-3.82-2.75-4.53-5.32-.67-2.42-.47-4.99-.15-7.41Z"></path>
    </g>
    <g>
      <path class="cls-4" d="M99.21,59.6c-3.85,2.08-8.25,4.02-12.81,5.16-5.23,1.31-10.66,1.72-15.39,1.74-10.61,9.18-11.36,23.01-11.36,23.01,43.61,23.06,64.03-13.83,64.03-13.83,0,0-9.53-12.74-24.47-16.07Z"></path>
      <path class="cls-6" d="M98.02,60.23c-3.55,1.83-7.52,3.5-11.62,4.53-4.38,1.1-8.91,1.57-13.04,1.7-2.36,3.18-3.81,7.08-3.94,11.33-.33,11.08,8.38,20.34,19.46,20.67,11.08.33,20.34-8.38,20.67-19.46.25-8.24-4.51-15.47-11.53-18.77Z"></path>
      <path class="cls-5" d="M94.5,61.91c-2.58,1.14-5.31,2.14-8.1,2.84-3.22.81-6.52,1.27-9.69,1.52-3.09,3.08-5.06,7.28-5.2,11.98-.3,9.77,7.39,17.93,17.16,18.23,9.77.29,17.93-7.39,18.23-17.16.24-8.11-5.01-15.09-12.39-17.41Z"></path>
      <path class="cls-1" d="M94.91,84.72c.07-2.16,1.87-3.86,4.03-3.79.62.02,1.19.19,1.7.46.23-.85.37-1.73.4-2.65.19-6.39-4.83-11.72-11.21-11.91s-11.72,4.83-11.91,11.21c-.19,6.39,4.83,11.72,11.21,11.91,2.66.08,5.12-.75,7.12-2.2-.84-.74-1.37-1.83-1.34-3.04Z"></path>
      <path class="cls-1" d="M117.35,67.72c-.21-.19-.4-.4-.61-.59-3.68-3.46-8.08-6.22-12.81-8.04,3.3-1.36,6.54-2.87,9.7-4.54.51-.25.2-1.06-.34-.94-4.03.71-7.96,1.64-11.88,2.59,3.46-2.1,5.69-3.81,5.69-3.81,0,0-10.33,4.47-17.82,6.85-1.78.46-3.56.92-5.34,1.38-7.34,1.38-23.47,3.36-23.47,3.36,0,0,3.85.49,9.15.56-3.92,1.12-7.82,2.29-11.72,3.53-.55.15-.41,1,.14.99,2.69.02,5.36-.15,8.01-.42-.02.03-.04.05-.06.07-3.39,4.34-5.63,9.55-6.55,14.98-.74,2.35-1.23,4.67-1.01,6.38l1.89.74c15.55,10.93,36.82,12.53,52.05-.06,4.09-3.33,7.61-7.36,10.16-11.96,1.31-1.62,2.22-3.1,2.15-4.05-.12-1.62-3.76-4.54-7.33-7.02ZM109.99,87.49c-16.49,10.79-32.45,7.83-49.98,1.92.03-.14.07-.31.08-.4,1.9-8.58,6.3-16.22,12.86-21.3,8.24-1.38,16.41-3.36,24.31-6.11,9.64,1.52,18.56,7.26,25.57,14.21-3.67,4.5-8.02,8.49-12.83,11.67ZM122.19,70.41s4.05,1.46,3.94,4.38-3.54,5.49-3.54,5.49c0,0,5.99-3.83,5.24-6.37s-5.64-3.5-5.64-3.5ZM58.58,83.26s-1.44,5.86-1.06,7.1l2.14,1.4s-3.09.01-3.47-1.03,2.39-7.48,2.39-7.48Z"></path>
    </g>
    <g id="SvgjsG1121">
      <g>
        <path class="cls-6" d="M16.32,76.21c.14-.09.28-.18.42-.27.64-.54-.22-1.48-.82-.91-3.39,2.56-8.06,3.81-12.3,3.16-.18-.04-.36.07-.4.25-.04.18.07.35.25.39.1.02.21.04.31.06-.46.98-.73,2.06-.73,3.2,0,4.31,3.59,7.8,8.02,7.8s8.02-3.49,8.02-7.8c0-2.35-1.08-4.45-2.78-5.88Z"></path>
        <path class="cls-4" d="M15.45,76.75c-2.6,1.5-5.55,2.26-8.54,2.37-.78.02-1.54-.02-2.32-.11-.55.92-.89,1.96-.89,3.07,0,3.63,3.33,6.58,7.43,6.58s7.43-2.94,7.43-6.58c0-2.2-1.23-4.14-3.11-5.33Z"></path>
        <circle class="cls-6" cx="13.09" cy="82.73" r="3.6"></circle>
        <circle class="cls-5" cx="13.09" cy="82.73" r="3.09"></circle>
        <path class="cls-1" d="M15.1,82.41c-.07-.48-.32-.88-.65-1.18-.03.2-.19.37-.4.4-.27.04-.52-.14-.56-.41-.03-.17.05-.33.17-.44-.28-.08-.58-.11-.88-.06-1.11.17-1.86,1.21-1.69,2.32s1.21,1.86,2.32,1.69c1.11-.17,1.86-1.21,1.69-2.32Z"></path>
      </g>
      <g>
        <ellipse class="cls-6" cx="166.84" cy="63.16" rx="8.02" ry="7.8"></ellipse>
        <ellipse class="cls-4" cx="166.91" cy="63.16" rx="7.43" ry="6.58"></ellipse>
        <circle class="cls-6" cx="169.85" cy="64.05" r="3.6"></circle>
        <circle class="cls-5" cx="169.85" cy="64.05" r="3.09"></circle>
        <path class="cls-1" d="M171.85,63.73c-.07-.48-.32-.88-.65-1.18-.03.2-.19.37-.4.4-.27.04-.52-.14-.56-.41-.03-.17.05-.33.17-.44-.28-.08-.58-.11-.88-.06-1.11.17-1.86,1.21-1.69,2.32s1.21,1.86,2.32,1.69c1.11-.17,1.86-1.21,1.69-2.32Z"></path>
      </g>
      <g>
        <ellipse class="cls-6" cx="40.78" cy="16.79" rx="8.02" ry="7.8"></ellipse>
        <ellipse class="cls-4" cx="40.84" cy="16.79" rx="7.43" ry="6.58"></ellipse>
        <circle class="cls-6" cx="40.75" cy="18.54" r="3.6"></circle>
        <circle class="cls-5" cx="40.75" cy="18.54" r="3.09"></circle>
        <path class="cls-1" d="M42.75,18.23c-.07-.48-.32-.88-.65-1.18-.03.2-.19.37-.4.4-.27.04-.52-.14-.56-.41-.03-.17.05-.33.17-.44-.28-.08-.58-.11-.88-.06-1.11.17-1.86,1.21-1.69,2.32s1.21,1.86,2.32,1.69c1.11-.17,1.86-1.21,1.69-2.32Z"></path>
      </g>
      <g>
        <path class="cls-6" d="M75.68,11.09c.18-.21.2-.52.02-.75-.2-.27-.59-.32-.86-.12-3.22,2.25-7.53,3.27-11.43,2.74-.18-.04-.36.08-.4.26-.02.12.03.24.12.32-.51,1.02-.8,2.16-.8,3.37,0,4.31,3.59,7.8,8.02,7.8s8.02-3.49,8.02-7.8c0-2.32-1.05-4.39-2.7-5.81Z"></path>
        <path class="cls-4" d="M74.84,11.64c-2.57,1.46-5.46,2.15-8.39,2.23-.84.01-1.67-.03-2.5-.15-.59.95-.95,2.03-.95,3.18,0,3.63,3.33,6.58,7.43,6.58s7.43-2.94,7.43-6.58c0-2.16-1.19-4.07-3.01-5.27Z"></path>
        <circle class="cls-6" cx="69.85" cy="18.26" r="3.6"></circle>
        <circle class="cls-5" cx="69.85" cy="18.26" r="3.09"></circle>
        <path class="cls-1" d="M71.85,17.95c-.07-.48-.32-.88-.65-1.18-.03.2-.19.37-.4.4-.27.04-.52-.14-.56-.41-.03-.17.05-.33.17-.44-.28-.08-.58-.11-.88-.06-1.11.17-1.86,1.21-1.69,2.32.17,1.11,1.21,1.86,2.32,1.69,1.11-.17,1.86-1.21,1.69-2.32Z"></path>
      </g>
      <g>
        <ellipse class="cls-6" cx="103.76" cy="11.18" rx="8.02" ry="7.8"></ellipse>
        <ellipse class="cls-4" cx="103.83" cy="11.18" rx="7.43" ry="6.58"></ellipse>
        <circle class="cls-6" cx="100.63" cy="11.7" r="3.6"></circle>
        <circle class="cls-5" cx="100.63" cy="11.7" r="3.09"></circle>
        <path class="cls-1" d="M102.64,11.39c-.07-.48-.32-.88-.65-1.18-.03.2-.19.37-.4.4-.27.04-.52-.14-.56-.41-.03-.17.05-.33.17-.44-.28-.08-.58-.11-.88-.06-1.11.17-1.86,1.21-1.69,2.32s1.21,1.86,2.32,1.69c1.11-.17,1.86-1.21,1.69-2.32Z"></path>
      </g>
      <g>
        <path class="cls-6" d="M152.18,24.58s.03-.02.05-.03c.29-.2.35-.6.14-.88-.2-.27-.59-.32-.86-.12-3.22,2.25-7.53,3.27-11.43,2.74-.18-.04-.36.08-.4.26-.04.18.08.35.26.39.23.05.47.08.7.12-.68,1.14-1.08,2.46-1.08,3.88,0,4.31,3.59,7.8,8.02,7.8s8.02-3.49,8.02-7.8c0-2.64-1.36-4.95-3.42-6.36Z"></path>
        <path class="cls-4" d="M151.17,25.17c-2.48,1.33-5.25,1.95-8.06,2.04-.51,0-1.01,0-1.52-.04-.85,1.07-1.38,2.36-1.38,3.78,0,3.63,3.33,6.58,7.43,6.58s7.43-2.94,7.43-6.58c0-2.5-1.59-4.66-3.9-5.77Z"></path>
        <circle class="cls-6" cx="149.61" cy="30.11" r="3.6"></circle>
        <circle class="cls-5" cx="149.61" cy="30.11" r="3.09"></circle>
        <path class="cls-1" d="M151.61,29.8c-.07-.48-.32-.88-.65-1.18-.03.2-.19.37-.4.4-.27.04-.52-.14-.56-.41-.03-.17.05-.33.17-.44-.28-.08-.58-.11-.88-.06-1.11.17-1.86,1.21-1.69,2.32.17,1.11,1.21,1.86,2.32,1.69s1.86-1.21,1.69-2.32Z"></path>
      </g>
      <g>
        <path class="cls-6" d="M175.14,98.79c-5.02.7-10.51-.58-14.67-3.44-.28-.21-.67-.14-.87.14-.19.28-.12.66.16.85.19.12.39.22.58.33-.94,1.28-1.5,2.83-1.5,4.52,0,4.31,3.59,7.8,8.02,7.8s8.02-3.49,8.02-7.8c0-.58-.08-1.14-.21-1.68.2-.03.41-.04.61-.08.43-.08.28-.75-.14-.65Z"></path>
        <path class="cls-4" d="M161.11,97.12c-1.01,1.12-1.62,2.53-1.62,4.08,0,3.63,3.33,6.58,7.43,6.58s7.43-2.94,7.43-6.58c0-.56-.1-1.09-.24-1.61-4.45.52-9.03-.35-12.99-2.47Z"></path>
        <circle class="cls-6" cx="167.32" cy="104.37" r="3.6"></circle>
        <circle class="cls-5" cx="167.32" cy="104.37" r="3.09"></circle>
        <path class="cls-1" d="M169.32,104.06c-.07-.48-.32-.88-.65-1.18-.03.2-.19.37-.4.4-.27.04-.52-.14-.56-.41-.03-.17.05-.33.17-.44-.28-.08-.58-.11-.88-.06-1.11.17-1.86,1.21-1.69,2.32.17,1.11,1.21,1.86,2.32,1.69,1.11-.17,1.86-1.21,1.69-2.32Z"></path>
        <path class="cls-3" d="M164.88,96.18s3.43,1.9,9.26,1.8c0,0-1.57-3.1-4.23-3.66l1.83,2.2c.2.24,0,.59-.3.55l-6.56-.89Z"></path>
      </g>
      <g>
        <path class="cls-6" d="M24.7,48.68c-5.02.7-10.51-.58-14.67-3.44-.28-.21-.67-.14-.87.14-.19.28-.12.66.16.85.22.14.46.26.69.39-1.12,1.34-1.8,3.04-1.8,4.89,0,4.31,3.59,7.8,8.02,7.8s8.02-3.49,8.02-7.8c0-.72-.12-1.42-.31-2.08.3-.04.6-.06.89-.11.43-.08.28-.75-.14-.65Z"></path>
        <path class="cls-4" d="M10.82,47.09c-1.21,1.17-1.95,2.72-1.95,4.43,0,3.63,3.33,6.58,7.43,6.58s7.43-2.94,7.43-6.58c0-.7-.14-1.37-.37-2.01-4.3.44-8.7-.41-12.53-2.42Z"></path>
        <circle class="cls-6" cx="15.57" cy="54.96" r="3.6"></circle>
        <circle class="cls-5" cx="15.57" cy="54.96" r="3.09"></circle>
        <path class="cls-1" d="M17.58,54.64c-.07-.48-.32-.88-.65-1.18-.03.2-.19.37-.4.4-.27.04-.52-.14-.56-.41-.03-.17.05-.33.17-.44-.28-.08-.58-.11-.88-.06-1.11.17-1.86,1.21-1.69,2.32.17,1.11,1.21,1.86,2.32,1.69,1.11-.17,1.86-1.21,1.69-2.32Z"></path>
        <path class="cls-3" d="M17.76,43.63s3.8.7,5.56,3.32c0,0-2.79.78-9.5-1.7,0,0,10.98,2.12,3.94-1.62Z"></path>
      </g>
    </g>
  </g>
</svg><style>@media (prefers-color-scheme: light) { :root { filter: none; } }
@media (prefers-color-scheme: dark) { :root { filter: none; } }
</style></svg>